<svg width="20" height="20" viewBox="0 0 20 20" fill="none" xmlns="http://www.w3.org/2000/svg">
<path d="M12.487 10.0001C12.487 10.0986 12.4676 10.1961 12.4299 10.2871C12.3922 10.3781 12.337 10.4608 12.2673 10.5304C12.1977 10.6001 12.115 10.6553 12.024 10.693C11.933 10.7307 11.8355 10.7501 11.737 10.7501C11.6385 10.7501 11.541 10.7307 11.45 10.693C11.359 10.6553 11.2763 10.6001 11.2067 10.5304C11.137 10.4608 11.0818 10.3781 11.0441 10.2871C11.0064 10.1961 10.987 10.0986 10.987 10.0001C10.987 9.80117 11.066 9.6104 11.2067 9.46975C11.3473 9.3291 11.5381 9.25008 11.737 9.25008C11.9359 9.25008 12.1267 9.3291 12.2673 9.46975C12.408 9.6104 12.487 9.80117 12.487 10.0001ZM9.605 2.01408C9.53216 1.99843 9.45674 1.99926 9.38426 2.01651C9.31178 2.03375 9.24407 2.06698 9.18609 2.11375C9.1281 2.16053 9.08129 2.21967 9.0491 2.28686C9.0169 2.35404 9.00013 2.42758 9 2.50208V17.5021C8.99998 17.5767 9.01664 17.6503 9.04877 17.7176C9.08091 17.7849 9.12769 17.8442 9.1857 17.8911C9.2437 17.938 9.31147 17.9713 9.38402 17.9886C9.45657 18.0059 9.53208 18.0067 9.605 17.9911L16.605 16.4901C16.7168 16.4658 16.817 16.4039 16.8887 16.3148C16.9604 16.2256 16.9993 16.1145 16.999 16.0001V4.00008C16.9988 3.88585 16.9595 3.77514 16.8876 3.68635C16.8158 3.59757 16.7157 3.53607 16.604 3.51208L9.605 2.01408ZM10 16.8831V3.12008L16 4.40508V15.5971L10 16.8831ZM8.002 16.9981V15.9981H4V4.00308H8.002V3.00308H3.5C3.36739 3.00308 3.24021 3.05576 3.14645 3.14953C3.05268 3.24329 3 3.37047 3 3.50308V16.4981C3 16.6307 3.05268 16.7579 3.14645 16.8516C3.24021 16.9454 3.36739 16.9981 3.5 16.9981H8.002Z" fill="black"/>
</svg>
