<svg width="14" height="14" viewBox="0 0 14 14" fill="none" xmlns="http://www.w3.org/2000/svg">
<g clip-path="url(#clip0_81_2283)">
<path d="M13.4651 3.17191H10.7171C10.6888 3.17191 10.6607 3.16632 10.6346 3.15545C10.6084 3.14458 10.5847 3.12865 10.5647 3.10858C10.5447 3.08851 10.5289 3.06469 10.5181 3.03849C10.5074 3.01229 10.5019 2.98423 10.5021 2.95591C10.5024 2.90379 10.5211 2.85347 10.5551 2.81391L12.5151 0.573909C12.5342 0.551905 12.5579 0.53427 12.5845 0.522194C12.611 0.510119 12.6399 0.503883 12.6691 0.503909C12.7811 0.503909 12.8721 0.595909 12.8721 0.707909V4.06091M8.85007 4.05991H6.48007V3.55491C6.48032 3.38214 6.53084 3.21317 6.62549 3.06863C6.72014 2.92408 6.85481 2.81021 7.01307 2.74091L8.33307 2.16391C8.51573 2.08438 8.66537 1.94431 8.75679 1.76731C8.84821 1.59031 8.87581 1.3872 8.83494 1.19222C8.79406 0.997244 8.68721 0.822321 8.5324 0.696938C8.37759 0.571556 8.18429 0.503382 7.98507 0.503909H7.36907C7.18525 0.504112 7.00601 0.561227 6.85596 0.667408C6.7059 0.77359 6.59241 0.923627 6.53107 1.09691M7.50607 13.0649C8.02447 13.3987 8.64151 13.545 9.25459 13.4795C9.86768 13.414 10.4399 13.1407 10.8761 12.7049L11.2561 12.3249C11.4246 12.1545 11.5192 11.9246 11.5192 11.6849C11.5192 11.4453 11.4246 11.2153 11.2561 11.0449L9.65607 9.45491C9.4874 9.28698 9.25908 9.1927 9.02107 9.1927C8.78306 9.1927 8.55474 9.28698 8.38607 9.45491C8.2157 9.62346 7.98572 9.71799 7.74607 9.71799C7.50642 9.71799 7.27644 9.62346 7.10607 9.45491L4.55607 6.90491C4.38752 6.73454 4.29299 6.50456 4.29299 6.26491C4.29299 6.02526 4.38752 5.79528 4.55607 5.62491C4.724 5.45624 4.81828 5.22792 4.81828 4.98991C4.81828 4.7519 4.724 4.52358 4.55607 4.35491L3.01607 2.75491C2.8457 2.58636 2.61572 2.49182 2.37607 2.49182C2.13642 2.49182 1.90644 2.58636 1.73607 2.75491L1.35607 3.13491C0.912477 3.56495 0.629783 4.13411 0.555168 4.74741C0.480553 5.36071 0.618529 5.98106 0.946072 6.50491C2.68982 9.09367 4.91731 11.3212 7.50607 13.0649Z" stroke="black" stroke-linecap="round" stroke-linejoin="round"/>
</g>
<defs>
<clipPath id="clip0_81_2283">
<rect width="14" height="14" fill="white"/>
</clipPath>
</defs>
</svg>
